<svg width="150" height="150" viewBox="0 0 150 150" fill="none" xmlns="http://www.w3.org/2000/svg">
<path d="M75 150C62.2727 150 50.5682 147.102 39.8864 141.307C29.2045 135.511 20.4545 127.784 13.6364 118.125V136.364H0V95.4546H40.9091V109.091H24.0341C29.4886 117.273 36.6773 123.864 45.6 128.864C54.5227 133.864 64.3227 136.364 75 136.364C83.5227 136.364 91.5068 134.743 98.9523 131.502C106.398 128.261 112.875 123.889 118.384 118.384C123.893 112.87 128.268 106.393 131.509 98.9523C134.75 91.5114 136.368 83.5273 136.364 75H150C150 85.3409 148.039 95.0568 144.116 104.148C140.193 113.239 134.825 121.193 128.011 128.011C121.193 134.83 113.239 140.2 104.148 144.123C95.0568 148.045 85.3409 150.005 75 150ZM68.8636 122.727V113.864C63.5227 112.614 59.175 110.314 55.8205 106.964C52.4659 103.614 49.9955 99.2091 48.4091 93.75L59.6591 89.3182C61.0227 93.9773 63.1545 97.4727 66.0545 99.8046C68.9545 102.136 72.2773 103.3 76.0227 103.295C79.7727 103.295 82.9841 102.416 85.6568 100.657C88.3295 98.8977 89.6636 96.1409 89.6591 92.3864C89.6591 89.0909 88.2659 86.4205 85.4795 84.375C82.6932 82.3296 77.7227 80 70.5682 77.3864C63.8636 75 58.95 72.1591 55.8273 68.8637C52.7045 65.5682 51.1409 61.25 51.1364 55.9091C51.1364 51.25 52.7568 47.0182 55.9977 43.2136C59.2386 39.4091 63.6409 36.9364 69.2045 35.7955V27.2727H81.1364V35.7955C85.2273 36.1364 88.95 37.7841 92.3046 40.7387C95.6591 43.6932 97.9591 47.1591 99.2046 51.1364L88.2955 55.5682C87.3864 52.9546 85.9091 50.7659 83.8636 49.0023C81.8182 47.2387 78.9773 46.3591 75.3409 46.3636C71.3636 46.3636 68.3227 47.2159 66.2182 48.9205C64.1136 50.625 63.0636 52.9546 63.0682 55.9091C63.0682 58.8636 64.375 61.1932 66.9886 62.8977C69.6023 64.6023 74.3182 66.5909 81.1364 68.8637C89.3182 71.8182 94.7727 75.2841 97.5 79.2614C100.227 83.2386 101.591 87.6137 101.591 92.3864C101.591 95.6818 101.023 98.5796 99.8864 101.08C98.75 103.58 97.2432 105.711 95.3659 107.475C93.4932 109.234 91.3068 110.652 88.8068 111.73C86.3068 112.807 83.6364 113.632 80.7955 114.205V122.727H68.8636ZM0 75C0 64.6591 1.96136 54.9432 5.88409 45.8523C9.80682 36.7614 15.175 28.8068 21.9886 21.9886C28.8068 15.1705 36.7614 9.80228 45.8523 5.8841C54.9432 1.96592 64.6591 0.00455809 75 1.26375e-05C87.7273 1.26375e-05 99.4318 2.89774 110.114 8.69319C120.795 14.4886 129.545 22.2159 136.364 31.875V13.6364H150V54.5455H109.091V40.9091H125.966C120.511 32.7273 113.323 26.1364 104.4 21.1364C95.4773 16.1364 85.6773 13.6364 75 13.6364C66.4773 13.6364 58.4932 15.2568 51.0477 18.4977C43.6023 21.7386 37.125 26.1114 31.6159 31.6159C26.1114 37.1296 21.7409 43.6091 18.5045 51.0546C15.2682 58.5 13.6455 66.4818 13.6364 75H0Z" fill="black"/>
</svg>
